<?xml version="1.0" encoding="utf-8"?>
<!-- Generator: Adobe Illustrator 19.0.0, SVG Export Plug-In . SVG Version: 6.00 Build 0)  -->
<svg version="1.1" id="Layer_1" focusable="false" xmlns="http://www.w3.org/2000/svg" xmlns:xlink="http://www.w3.org/1999/xlink"
	 x="0px" y="0px" viewBox="-41 149 496 496" style="enable-background:new -41 149 496 496;" xml:space="preserve">
<style type="text/css">
	.st0{fill:#09B1E2;}
</style>
<path class="st0" d="M207,149C70,149-41,260.1-41,397c0,137,111,248,248,248s248-111,248-248C455,260.1,344,149,207,149z M207,259
	c23.2,0,42,18.8,42,42s-18.8,42-42,42s-42-18.8-42-42S183.8,259,207,259z M263,513c0,6.6-5.4,12-12,12h-88c-6.6,0-12-5.4-12-12v-24
	c0-6.6,5.4-12,12-12h12v-64h-12c-6.6,0-12-5.4-12-12v-24c0-6.6,5.4-12,12-12h64c6.6,0,12,5.4,12,12v100h12c6.6,0,12,5.4,12,12V513z"
	/>
</svg>
