<?xml version="1.0" encoding="utf-8"?>
<!-- Generator: Adobe Illustrator 19.0.0, SVG Export Plug-In . SVG Version: 6.00 Build 0)  -->
<svg version="1.1" id="Layer_1" focusable="false" xmlns="http://www.w3.org/2000/svg" xmlns:xlink="http://www.w3.org/1999/xlink"
	 x="0px" y="0px" viewBox="-102 286 504.4 504" style="enable-background:new -102 286 504.4 504;" xml:space="preserve">
<style type="text/css">
	.st0{fill:#09B1E2;}
</style>
<path class="st0" d="M190,510.3c-6.6,0-12-5.4-12-12v-48c0-6.6,5.4-12,12-12h98.3c-32-43.9-83.8-72.3-142.3-72.3
	c-97.3,0-176,78.7-176,176s78.7,176,176,176c44.8,0,85.6-16.7,116.6-44.1c4.7-4.2,11.9-3.9,16.4,0.5l34,34
	c4.9,4.9,4.6,12.8-0.5,17.4C268.5,765.7,210.1,790,146,790C9.2,790-101.7,679.3-102,542.5C-102.3,405.6,7.3,295,144.2,294
	c73.9-0.5,140.4,31.3,186.2,82.1V298c0-6.6,5.4-12,12-12h48c6.6,0,12,5.4,12,12v200.3c0,6.6-5.4,12-12,12H190L190,510.3z"/>
</svg>
