<?xml version="1.0" encoding="utf-8"?>
<!-- Generator: Adobe Illustrator 19.0.0, SVG Export Plug-In . SVG Version: 6.00 Build 0)  -->
<svg version="1.1" id="Layer_1" focusable="false" xmlns="http://www.w3.org/2000/svg" xmlns:xlink="http://www.w3.org/1999/xlink"
	 x="0px" y="0px" viewBox="-41 149 496 496" style="enable-background:new -41 149 496 496;" xml:space="preserve">
<style type="text/css">
	.st0{fill:#09B1E2;}
</style>
<path class="st0" d="M207,149C70,149-41,260-41,397S70,645,207,645s248-111,248-248S344,149,207,149z M207,597
	C96.5,597,7,507.5,7,397s89.5-200,200-200s200,89.5,200,200S317.5,597,207,597z M308.8,334.8L246.6,397l62.2,62.2
	c4.7,4.7,4.7,12.3,0,17l-22.6,22.6c-4.7,4.7-12.3,4.7-17,0L207,436.6l-62.2,62.2c-4.7,4.7-12.3,4.7-17,0l-22.6-22.6
	c-4.7-4.7-4.7-12.3,0-17l62.2-62.2l-62.2-62.2c-4.7-4.7-4.7-12.3,0-17l22.6-22.6c4.7-4.7,12.3-4.7,17,0l62.2,62.2l62.2-62.2
	c4.7-4.7,12.3-4.7,17,0l22.6,22.6C313.5,322.5,313.5,330.1,308.8,334.8L308.8,334.8z"/>
</svg>
