<?xml version="1.0" encoding="utf-8"?>
<!-- Generator: Adobe Illustrator 19.0.0, SVG Export Plug-In . SVG Version: 6.00 Build 0)  -->
<svg version="1.1" id="Layer_1" xmlns="http://www.w3.org/2000/svg" xmlns:xlink="http://www.w3.org/1999/xlink" x="0px" y="0px"
	 viewBox="0 0 3728 948" style="enable-background:new 0 0 3728 948;" xml:space="preserve">
<style type="text/css">
	.st0{fill:#FFFFFF;}
</style>
<g>
	<path class="st0" d="M652.3,426.2c3.5,0.8,7.3,3,10.7-1.7c-4.8-2.8-8-2.4-10.5,1.9c-3-0.3-6-3-9.2-0.1
		C647.1,429.7,647.1,429.7,652.3,426.2z M1571.4,670c5,3.7,8.7,2,12.4-0.6c4.8-3.5,9.7-7,14.5-10.4c10.3-7.4,19.2-16.6,30.5-22.7
		c4.4-2.3,8.6-5.1,12.7-7.9c6.7-4.6,11.9-11.5,20.8-12.9c1.9-0.3,3.4-3,5-4.5c1.4-1.3,2.6-3,4.2-4c13.3-8.2,26.6-16.3,39.9-24.5
		c16.7-10.3,33.2-21,50.1-30.9c40.8-23.8,83.3-44.4,126.1-64.4c24.1-11.3,48.7-21.6,73.2-31.8c25.2-10.4,50.6-20.3,76-30.3
		c22.3-8.7,44.6-17.3,67-25.7c6.9-2.6,14-4.6,21-6.9c-7.7,7.5-15.8,13.7-23.9,20c-0.5,0.4-1.2,0.7-1.8,0.8
		c-12.3,2.1-20.4,11.7-31,17c-18.6,9.3-33.5,24.8-53.2,32.6c-3.6,1.4-6.8,4.2-10.1,6.3c-3.9,2.4-7.9,4.8-11.8,7.1
		c-7,4.1-14.2,8-21,12.4c-6.7,4.3-12.9,9.3-19.4,13.9c-6.3,4.5-11.8,10.1-19.9,12.1c-3.9,1-7.4,4.3-10.9,6.8
		c-6.6,4.8-15.2,6.6-20.3,13.8c-0.7,1-3.1,0.7-4.7,1.2c-1.9,0.6-3.9,1-5.5,2.1c-8.9,6.2-17.4,12.8-26.9,18.5
		c-13.9,8.2-26.8,18-41,26c-16.4,9.2-31.3,21.3-47,31.8c-9.9,6.7-20.1,12.9-30.3,19.2c-12.7,7.8-26.1,14.6-38.2,23.3
		c-10.5,7.6-20.7,15.4-32.3,21.5c-12.9,6.7-25.3,14.5-37.6,22.3c-6.5,4.1-14.1,7.2-18.9,14.8c5.5,3.4,9.6,0.2,13.2-1.9
		c18.4-11.1,36.7-22.5,55-33.9c18-11.3,35.9-22.8,54-34c8.2-5.1,16.8-9.4,24.8-14.7c10.5-6.9,20.5-14.5,30.7-21.8
		c2.2-1.5,4-4.3,6.3-4.7c13.5-2.4,22.2-12.8,33-19.5c16-10,31.5-21,47.4-31.2c12-7.7,24.4-14.7,36.6-22.2
		c20.1-12.3,40.3-24.6,60.3-37.1c15.8-9.9,31.4-20,47-30.2c3-2,5.3-5.2,8.4-6.9c15.5-8.9,31.5-17,46.8-26.3
		c21.1-12.7,41.7-26.2,62.5-39.2c7.3-4.5,14.4-9.9,22.3-12.9c19.6-7.3,39.8-13,59.5-20.2c13-4.7,27.6-3.6,39.8-11.1
		c1.9-1.1,4.5-0.9,6.8-1.3c2.9-0.6,5.8-1.1,8.6-1.9c24.4-6.6,48.7-13.4,73.2-19.9c13.5-3.6,27-6.9,40.6-10.1c2.4-0.6,5-0.1,8.9-0.1
		c-4.1,6.1-8.9,8.9-13.8,11.4c-8.8,4.5-15.6,11.3-21.8,18.8c-4.5,5.6-5.2,11.8-1.5,17.7c4,6.5,10.3,10.9,18.2,10.2
		c6.9-0.6,13.7-2.2,20.4-4c10.6-2.8,21.1-6,31.5-9.4c5-1.6,9.6-4.3,14.5-6.3c3.8-1.6,7.7-2.9,12.5-4.8c0,3.6-0.6,5.8,0.1,7.4
		c1.5,3.2,3.1,7.6,5.8,8.5c2.4,0.8,6.3-2.1,9.1-4c1.8-1.2,2.7-3.7,4.3-5.4c8.9-9.9,17.8-19.7,26.7-29.6c4.6-5.1,9.7-10,13.5-15.7
		c1.7-2.6,1.9-7.1,1.1-10.3c-1.3-6-7.8-11.2-12.6-11.2c-5.6-0.1-14.7,5.2-15.5,10.6c-1.7,10.3-9.2,15.3-16.8,19.8
		c-6.9,4.1-14.3,7.1-21.2,11.6c-11.2,7.4-24.4,12-37.1,16.7c-7.4,2.7-15.5,3.4-23.4,4.5c-1.7,0.2-4.4-1.6-5.4-3.2
		c-0.6-1.1,0.7-3.7,1.6-5.3c0.8-1.4,2.3-2.4,3.7-3.3c7.1-5,14.5-9.5,21.2-14.8c11.9-9.6,26-14.6,39.8-20.4c2.4-1,5.5-2.4,7.7-1.7
		c7,2.2,12-2.4,17.5-4.7c5.7-2.4,7.5-7.3,5.4-13c-2.7-7.2-11.4-11.1-18.7-7.3c-22.4,11.5-46.9,16.9-70.9,23.4
		c-14.8,4-29.7,7.2-44.5,11.1c-16.1,4.2-32,8.8-48,13.1c-8.7,2.3-17.4,4.6-26.1,6.6c-21.1,4.9-42.1,9.9-62.1,18.5
		c-0.4,0.2-1.2-0.4-1.8-0.6c0.3-2.8,0.7-5.6,1-8.2c-5.3-3.2-8.5,0.1-10.7,3.2c-2.7,3.9-6,5.7-10.4,6.6c-2.9,0.6-5.6,2.1-8.2,3.6
		c-18.3,10.7-39,15.1-58.4,22.8c-12.9,5.2-26.5,8.8-39.6,13.6c-13.7,5-27.3,10.5-41,15.6c-11.8,4.3-23.9,7.8-35.5,12.5
		c-24,9.8-47.7,20.3-71.5,30.4c-12.2,5.2-24.6,9.8-36.7,15.4c-21.6,10-43.1,20.4-64.5,31c-14.3,7-28.4,14.5-42.5,21.9
		c-0.9,0.5-1.6,1.1-2.5,1.6c-10.7,6-21.4,12-32.1,17.9c-8.1,4.5-16.2,9-24.3,13.6c-4.3,2.5-8.5,5.2-12.9,7.7
		c-6.9,3.9-14,7.6-20.7,11.7c-7.9,4.9-15.5,10.1-23.3,15.2c-12.2,8-24.3,16-36.4,24.1c-10.2,6.9-20.4,13.7-30.4,20.9
		c-12.3,8.9-24.4,18.2-36.5,27.5C1577.5,661.5,1572.9,663.9,1571.4,670z M3011,359c0.9,5.2,4.3,8.4,9.2,8.8
		c9.4,0.9,15.6,6.6,22.2,12.3c2.4,2.1,5.3,4.4,8.3,5c17.3,3.3,35.2,2.5,52,8.6c0.6,0.2,1.3,0.2,2,0.1c13.5-1.2,26.9-2.4,40.4-3.8
		c8.2-0.8,16.5-3.1,24.4,1.6c0.5,0.3,1.4,0.4,1.9,0.2c7.5-3.2,15.1-0.9,22.7-0.7c1.9,0,4.2,0,5.8-0.9c7.2-4,13.7-3.2,20.3,2.7
		c2.5-6.7,7.5-6.8,12.6-6.7c3.6,0,7.2-0.1,10.8-0.4c15.2-1.3,30.4-3,45.6-4c9.2-0.6,18.5-0.9,27.7-0.5c14.8,0.6,29.7-2.9,44.4,1
		c1.7,0.4,3.7-0.7,5.6-0.9c7.9-0.9,15.7-2.2,23.6-2.6c8.9-0.5,17.9-0.3,26.9-0.6c14.9-0.5,29.8-1.5,44.7-1.6
		c16.9-0.1,33.8,0.6,50.7,0.7c18.6,0.2,37.2,0.3,55.8,0.2c6,0,11.9-0.6,17.8-1.3c1.4-0.2,2.6-2.2,5.6-4.8c-7.5-1-13-1.3-18.3-2.5
		c-4.7-1-8.9-1.3-13.6,0c-6,1.7-13,4-18.5,2.4c-7.6-2.2-14.9-1.8-22.4-1.8c-1.7,0-3.3-0.5-5-0.6c-8.9-0.5-17.9-1.3-26.8-1.2
		c-8.6,0.1-17.3,1.1-25.9,1.5c-8.4,0.4-16.9-4.3-25.3,0.1c-0.2,0.1-0.7,0-1-0.1c-12.3-5.1-26,1.6-38.3-4.2c-0.8-0.4-2.2-0.2-2.9,0.3
		c-8,5.3-16.6,2.8-25.2,2.8c-17.2,0-34.5,1-51.7,1.4c-7.3,0.2-14.9-1.2-21.9,0.4c-14.9,3.4-29.8,0.9-44.7,1.2
		c-6.6,0.1-13.2-0.5-19.8-0.1c-7.9,0.5-15.7,2.1-23.6,2.7c-18.9,1.4-37.7,2.9-56.6,3.5c-17.9,0.6-35.9,0.5-53.9,0.1
		c-8.6-0.2-17.4-1.1-25.6-3.3c-11.4-3-12.8-12.1-4.2-20c5.8-5.4,12.3-7.6,18.2-6.7c3.3-3.8,5.5-6.7,8.2-9.2c1.4-1.3,3.6-1.8,5.3-2.7
		c12.2-6.7,14.4-6,20.7,6.1c2.5,4.8,5.6,9.1,11.8,8.8c11.4-15.1,10.3-24-3.2-35.9c-4.3-3.8-8.2-4.1-13.4-4.2
		c-7.5-0.1-13.7,1.5-20.1,5.8c-8.2,5.6-17.4,9.7-26.3,14.2c-6.6,3.4-11,1.6-11.2-5.3c-0.4-10.1-6.3-16.9-13.4-22
		c-6.9-4.8-14.8-7.4-24.3-4.2c-11.5,3.9-22.3,8.6-32.6,14.8c-4.6,2.8-8.7,3.6-14.1,2.6c-10.5-2.1-16.2,2.3-16.9,12.7
		c-0.6,8.8-2.4,17-7.8,24.3c-1.2,1.6-2.1,3.4-2.8,5.3c-2.4,6.1,0.3,11,6.7,12.8c5.7,1.5,11.4,3,17.6,4.6c1-1.4,2.3-2.9,3.2-4.6
		c6.4-10.9,12.6-21.8,19.1-32.6c1.3-2.2,3.1-5.2,5.1-5.6c9.3-1.7,16.5-9.7,26.7-8.8C3030.6,335.2,3026.3,347.7,3011,359z
		 M2638.9,327.7c0,5.5,0.3,9.7-0.1,13.9c-0.4,5.6,1.9,9.5,6.4,12.6c9.4,6.6,20.3,8.8,31.3,8.3c16.6-0.8,33-3,48.9-8.6
		c4.2-1.5,9.3-2.3,13.6-1.4c16,3.2,31.9,1.5,47.7,0.1c9.5-0.8,18-1.4,26.7,4.4c7.9,5.3,16.7,1.3,20.2-7.5c1.7-4.3,3.4-8.6,4.9-13
		c3.5-10.1-2.1-18.8-12.5-20.7c-7.4-1.3-12,2.6-16.8,6.8c-2.7,2.4-5.3,5.7-8.4,6.7c-8.2,2.4-16.8,4-25.3,5.3
		c-9.2,1.4-13.3-2.3-12.3-11.8c0.8-6.8-2.5-9.9-7.5-12.5c-5.7-3-11.4-2-15.9,1.7c-4,3.3-7.1,7.8-9.9,12.2
		c-3.9,6.4-8.2,12.9-15.6,14.7c-12.2,2.9-24.8,4.9-37.3,6.3c-6.1,0.7-12.5-0.6-17-5.8c6.8-13.4,14.1-18.1,26-14.5
		c6.9,2.1,13.1,1,19.5-0.1c6.6-1.1,10-5.8,11.3-12.2c1.4-7.1,0.1-10.1-6.4-14.1c-4.6-2.8-9.5-4.7-15.2-3.6
		c-6.9,1.4-14.2,1.6-20.5,4.2c-8.7,3.6-16,1.8-23.9-1.8c-5.1-2.4-10.5-4.1-16-5.3c-14.1-3.2-28.3-3.4-42.5,0
		c-15.2,3.6-30.6,6.4-45.7,10.3c-9.1,2.4-16.7,8.5-18.7,17.7c-2,9-4.3,19.1,2.7,27.7c1.2,1.4,1.6,3.5,2.2,5.1
		c17.3,0.3,17.4,0.4,30.9-6.6c6.8-3.5,13.3-7.7,20.2-10.9c10.3-4.8,16.7-11.8,15.7-23.8c-0.1-0.8,0.8-1.8,1.1-2.5
		c15-4.4,42.5,4.6,42.1,14.2C2641.5,324.8,2639.7,326.7,2638.9,327.7z M1418.5,398.9c8.1,1.4,15.7,4.2,23,3.6
		c25.9-2.2,51.4-7.4,76.1-15.7c5.9-2,9.4-1.3,12.7,3.4c5.3,7.6,13.4,8.7,21.5,7.4c14.1-2.3,28-5.5,42-8.6c6.1-1.3,11.6-1.5,17.3,1.8
		c3.3,1.9,7.6,3.1,11.4,2.9c9.6-0.4,19.4-0.8,28.7-3.1c9.1-2.3,17-3.9,25.6,1.8c6.2,4,12.5,0.1,11.3-6.7c-1.3-7.8,2.5-11.1,8.1-14
		c5.3-2.8,8.7-7.2,10.6-12.7c2-5.8-0.7-11.9-6.5-15c-6-3.2-12.3-2.2-16.2,2.9c-3.4,4.4-7.3,8.6-10,13.5
		c-8.4,15.3-22.8,16.8-37.8,17.2c-1.9,0.1-3.9-0.8-6-1.3c4.4-4.8,8.5-8.7,11.9-13.1c3.6-4.8,4.7-10.3,1.6-15.9
		c-2.5-4.5-8.5-7.8-13.5-6.7c-5.9,1.2-10.5,4.5-12,10.6c-1.8,7.3-6.5,12.2-12.6,16c-14.6,9.1-30.6,12.8-47.7,12.2
		c-1.3-0.1-2.7-1.1-6.3-2.7c4.7-1.4,7-2.2,9.4-2.7c2.9-0.7,5.9-0.8,8.8-1.7c3.3-1,6.4-2.7,6.3-6.8c-0.1-4.2-1.7-7.8-5.8-9.7
		c-0.9-0.4-1.9-0.7-2.9-0.8c-5.8-0.7-7.7-4.2-7.8-9.7c0-2.6-0.4-5.8-2-7.6c-3.3-3.9-7.1-9.1-11.5-10c-6.9-1.3-14.6-0.4-21.7,1.2
		c-11.3,2.5-22.4,6.3-33.5,9.7c-4.7,1.5-9.2,3.5-10.9,9.7c2,0.2,3.2,0.7,4.4,0.4c8.6-1.8,17.2-3.7,25.8-5.7
		c8.2-1.8,16.3-3.9,24.3,0.6c7.3,4.1,7.9,9.3,1.9,15.2c-13,12.7-28.8,20.4-46.2,24.5c-12.2,2.9-24.9,4.3-37.4,5.4
		c-6.1,0.5-13.1,0.5-18-5c6.5-9.8,16.2-10.3,25.9-11c10.8-0.9,12.3-2.6,12.8-13.5c0.3-7-2.1-9.9-9-9.8c-6.7,0.2-13.1,1.6-18.7,6
		c-5.5,4.3-11,8.6-16.9,12.4c-9,5.9-15.1,12.9-11.3,24.6C1418.3,393.8,1418.1,395.5,1418.5,398.9z M1098.6,423
		c-4.3-5.3-9.8-5.1-15.5-4.3c-2.6,0.4-5.3,0.7-7.9,0.7c-21.9-0.2-43.8-0.3-65.7-0.9c-8.9-0.3-17.3,3.7-26.6,1.7
		c-14.1-3-28.5-1.5-42.7,0.2c-2.6,0.3-5.1,1.9-7.6,3c0.2,0.9,0.3,1.7,0.5,2.6c12.5,0.6,25,1.6,37.4,1.5c12.5-0.1,24.9-2.9,37.4-0.1
		c3.8,0.8,8.2,0.9,11.9-0.2c10.8-3.4,21.5-2.7,32.3-0.4c3.2,0.7,6.6,0.5,9.9,0.4c11.4-0.4,22.9-1.2,34.3-1.2
		c9.3-0.1,18.7,1.6,27.9,0.8c11.3-1,22.3-6,33.9-1.4c1.6,0.6,3.9-0.4,5.9-0.5c5.3-0.2,10.6-0.4,15.9-0.5c16.2-0.3,32.5,1.6,48.5-2.4
		c1.2-0.3,2.6,0,3.9,0.2c13.2,1.8,26.2,1.9,39.3-1.1c3.1-0.7,6.6-0.2,9.8-0.2c3,0,6,0.5,8.9,0.1c19-2.9,38.1-5.4,56.9-9.2
		c10-2,19.9-5.6,29.1-10c10.8-5.3,12.5-14.9,5.9-25.2c-1.4-2.2-3-4.6-5.1-6c-7.7-5.2-15.2-11.3-23.6-14.8c-22.7-9.4-45.8-18-69-26
		c-13.4-4.6-27.5-7.6-41.3-11.1c-5.5-1.4-11.3-1.5-16.6-3.2c-25.4-8.3-51.7-12.3-77.7-17.9c-23.7-5.1-47.9-6.7-71.5-12.2
		c-14.5-3.3-29.6-4.3-44.4-6.1c-4.4-0.5-9.1-0.8-13.1,2.2c0.7,1.1,0.9,2,1.3,2.1c14.6,2.9,29.1,5.7,43.7,8.4c1.3,0.2,2.7-0.5,4-0.4
		c7.9,0.7,16.1,0.5,23.7,2.5c10.6,2.8,21.1,5.1,31.9,7c8.9,1.6,17.7,3.2,26.7,4.2c7.2,0.8,13.9,3.4,20.7,5.6
		c8.7,2.7,18.4,1.8,27.5,3.5c9.1,1.7,18.2,4.2,26.9,7.4c8.7,3.1,16.7,8.1,26.5,6.9c1.9-0.2,4,0.5,5.8,1.2c11,3.6,21.9,7.6,33,10.8
		c12.5,3.7,23.8,10.1,35.4,15.8c5.8,2.9,12.2,4.8,18.1,7.6c5.9,2.9,11.7,6.3,17.3,9.7c7.1,4.3,7.7,14.5,0.7,19.3
		c-4.9,3.3-10.6,6-16.2,7.3c-17.5,3.9-34.8,8.5-52.9,9.7c-10.4,0.7-20.6,2.2-31.1,2.5c-13,0.4-26,2.2-39.1,2
		c-7-0.1-13.9-0.1-20.9,0.2c-10.6,0.4-21.2,1.1-31.8,1.7c-8.6,0.5-17.2,1.2-25.9,1.3c-7.7,0.1-15.4-1.2-23-0.6
		C1114.3,417.6,1105.4,415.2,1098.6,423z M1566,669.1c-9,6.8-17.4,13.1-25.8,19.6c-10.7,8.3-21.2,16.8-32.1,24.9
		c-16.7,12.5-33.6,24.7-50.4,37.2c-4.5,3.4-9.7,6.4-13,10.7c-5.9,8-14,13.1-21.6,18.9c-9.8,7.5-19.5,15-29,22.8
		c-5.9,4.8-11.5,10-17.1,15.1c-11.8,10.8-23.6,21.6-35.2,32.5c-5.5,5.2-10.8,10.8-16,16.4c-6.1,6.6-12,13.4-18,20
		c-2.7,3-5.8,5.6-8.2,8.7c-4.1,5.2-3,9.4,3.4,11.2c2.8,0.8,6.5-0.1,9.3-1.4c5.3-2.6,10.2-6.1,15.3-9.3
		c27.4-17.1,54.7-34.3,82.1-51.3c19.2-11.9,38.5-23.7,57.9-35.4c17.6-10.6,35.4-21.1,53.2-31.5c5.1-3,10.8-5,15.9-8
		c7.2-4.2,13.9-9.1,21.1-13.3c18.1-10.6,36.3-20.9,54.4-31.5c2.1-1.2,3.9-3.2,5.9-4.9c-3.2-4.8-7-3.7-10.1-2c-7.2,4-14,8.6-21,12.9
		c-2.8,1.7-5.6,3.5-8.5,5.1c-20.2,10.8-40.7,21.1-60.5,32.5c-27,15.5-53.6,31.8-80.4,47.8c-16.5,9.9-32.9,20.1-49.4,30.1
		c-9.9,6.1-19.8,12.3-29.9,18.1c-3.2,1.8-6.4,4.8-12.3,3.1c1.2-2.7,1.8-5.2,3.3-6.9c5.6-6.1,11.3-12.3,17.4-17.9
		c11.2-10.4,22.6-20.5,34.2-30.5c22.2-19,44.5-37.9,66.7-56.8c0.5-0.4,1.1-0.7,1.6-1.2c3.3-3.1,6.5-6.2,11.2-10.6
		c5.5,0.2,10.7-4.3,15.4-9.7c1.3-1.5,2.9-2.8,4.5-3.8c16.6-10.6,32.5-22,46.3-36.1c0.9-0.9,2.2-1.5,3.3-2.3
		c5.3-3.9,10.7-7.7,16-11.6C1570.7,677.5,1570.4,673.9,1566,669.1z M2160.3,177.7c0.8,0,1.6-0.1,2.1,0.1
		c16.7,10.3,35.4,13,54.3,14.7c9,0.8,11.4-1.3,15.2-10.2c31-1.9,62.3-3.7,94.7-5.7c1.2-1.2,3.1-3.4,5.1-5.5
		c-6.3-5.4-6.3-5.4-11.6-3.8c-2.2,0.7-4.4,1.5-6.6,1.8c-6.5,0.9-13.1,1.6-19.7,2.3c-9.9,1-19.8,2.6-29.7,2.5
		c-21.9-0.3-43.8-1-65.6-2.6c-9-0.6-19.6,1.4-25.9-8.5c-8.2-1.8-12-9-17.2-14.3c-4.6-4.7-8.6-10.2-6.1-17.9c0.5-1.6-1-5.7-2-5.8
		c-6.3-0.8-8.5-5.1-10.6-10.1c-1.2-2.9-3.6-5.5-6.1-7.6c-1.8-1.6-4.9-3.1-6.9-2.6c-1.9,0.4-3.6,3.3-4.8,5.5
		c-0.8,1.3-0.7,3.3-0.6,4.9c0.9,9.9,0.6,20.2,3.1,29.7c3.4,12.7,4,25.5,4.9,38.4c0.4,5.7,1.9,12.4,5.4,16.6
		c7.7,9.2,13.1,19.2,16,30.6c3.2,12.8,9.6,15,21.3,14.3c7.3-0.4,11.8-4.6,14-10.9c2.1-6,1-11.1-4.7-15.8
		C2165.9,207.6,2160,193.9,2160.3,177.7z M1795.6,386.9c7.3-0.8,9.7-4.5,11.7-8.8c7-15.7,14.9-30.5,27.8-42.9
		c19.6-18.8,37.3-39.6,55.7-59.7c6.7-7.3,13.2-14.9,19.3-22.7c3.9-4.9-0.1-13.7-6.3-14.7c-6.1-0.9-14.9,4.3-18.1,10
		c-3.9,6.9-7.8,14-12.8,20.1c-11.3,13.9-23.8,27-34.8,41.1c-12.2,15.6-28.8,26.5-42.3,40.7c-0.3,0.3-1.3,0-2.1,0
		c-1.7-2.7-3.3-5.6-5.3-8.1c-7.6-9.4-12.5-10.5-23.4-5.5c-3,1.4-6,3-9.1,4.1c-16.1,5.3-29.6,14.9-42.2,25.9
		c-8.9,7.8-6.5,19.2,5,22.2c6.2,1.6,13.2,1.2,19.7,0.7c6.3-0.5,12.5-2.1,18.6-3.8c11.7-3.4,24.1-5.1,34.1-13.1
		c2.6-2.1,5.8-3.4,9.4,0.2C1799.1,376.6,1797.6,380.9,1795.6,386.9z M1939.1,375.7c-0.2-1-0.4-2-0.6-3c2.7-2.1,5.5-4.2,8.2-6.4
		c3-2.5,6.4-4.9,8.7-7.9c3.4-4.4,4.8-10,1.9-15c-2.8-4.7-7.8-7-13.5-7.3c-1.3-0.1-2.6,0.2-4,0.3c-13.3,1.1-26.5,2.2-39.8,3.4
		c-16.2,1.5-32.4,3-48.5,4.7c-5,0.5-9.9,5.9-10.7,11.7c-0.7,4.6,0.8,9.3,4.9,11.2c9.9,4.6,19.8,9.6,31.2,9.8c6.7,0.1,10.5-4.4,9-11
		c-0.6-2.5-1.6-4.8-2.8-8.5c15.8-2.3,30.4-5.2,46.3-0.1c-1.7,2.2-2.4,3.7-3.6,4.7c-3.6,2.9-7.2,6-11.3,8.2c-4.9,2.6-6.3,6.6-6,11.6
		c0.2,4.8,4.2,4.8,7.5,6.5c8,3.9,16.4,5.3,25,6.2c7.3,0.8,14.8,0.5,21.8,2.3c16.1,4.1,31.9,9.1,47.8,13.7c4.3,1.2,8.6,3.4,13.2,0.1
		c-0.8-1.7-1.1-3.1-1.9-4c-5.9-6.9-12.3-12.5-21.7-14.8c-16.7-4.1-32.7-11-50.1-12.8C1946.4,378.8,1942.8,376.9,1939.1,375.7z
		 M2935.7,341.1c0-2,0.1-4,0-6c-0.9-14.2-14.2-27-26.4-25c-3.8,0.6-7.6,2.4-11.1,4.2c-6,3.1-12.3,4.3-18.8,5.7
		c-12.9,2.8-25.6,7.2-33.1,20c-8,13.5-3.6,25.4,11.8,28.5c9.1,1.8,18.4,2.5,27.7,3.5c3.9,0.4,7.9,1,11.6,0.5
		c4.5-0.7,8.8-3.2,13.3-3.7c7.2-0.8,11.9-4.4,16.4-9.8C2931.6,353.5,2937.1,349.2,2935.7,341.1z M1014.9,281.3c-3.9-4.7-3.9-5-7.9-5
		c-5,0-10.6,2-14.9,0.4c-15.8-5.9-32.3-6.1-48.7-7.2c-12.2-0.8-24.4-0.7-36.3-4.7c-4-1.3-8.5-1.3-12.8-1.5
		c-11.3-0.6-22.6-0.6-33.9-1.6c-13.7-1.2-27.7,0.6-41.3-3.4c-2.2-0.6-4.6-0.1-7-0.2c-4.6-0.3-9.3-0.8-13.9-0.8
		c-11.6-0.2-23.3-0.2-34.9-0.3c-2,0-4.2,0.9-5.8,0.2c-11.9-5.1-24.2-1.8-36.3-2.3c-7.9-0.4-15.9,0.2-23.7-0.8
		c-16.1-2.1-32.1-5-48.2-7.3c-4.8-0.7-9.4-1.5-15.6-5.3c5.1-1.9,8.2-3.2,11.5-4.2c20.6-6.5,41.1-13.2,62.6-16.3
		c3.3-0.5,6.8-1.7,5-7.5c-10,1.1-20.1,1.9-29.6,6.2c-3.5,1.6-7.4,2.6-11.2,3.5c-13.6,3.1-27.3,5.9-40.9,9.1c-3.8,0.9-7.7,2.4-11,4.6
		c-5.8,3.8-5.5,10.1,0.6,13.6c2.2,1.2,5,1.5,7.6,1.8c3.3,0.4,6.6,0.1,9.9,0.4c15.9,1.6,31.7,3.4,47.6,4.9c6.3,0.6,12.6,0.5,18.9,0.9
		c14.3,1,28.5,2.2,42.8,3.1c15.6,1,31.2,1.8,46.8,2.6c8.9,0.5,17.8,0.8,26.7,1.4c15.9,1.1,31.7,2.4,47.6,3.6
		c6.6,0.5,13.2,1,19.9,1.3c6,0.3,11.9,0.2,17.9,0.7c13.8,1.2,27.6,2.7,41.4,4.2c9.8,1.1,19.7,2.3,29.5,3.4c0.7,0.1,1.4,0.2,1.9,0.5
		c10.6,6.9,22.8-0.4,33.7,3.8C1013.2,283.3,1013.8,282.3,1014.9,281.3z M2523.1,132.1c-2.7-2.1-4.9-3.8-7.3-5.7
		c4-4.1,7.7-4.6,12.3-2.7c2.2,0.9,6.6,1.4,7.2,0.4c3.4-5.9,10-5.9,14.8-9c7.2-4.7,14.5-9.2,22.1-13.2c16.1-8.6,32.5-16.7,48.5-25.4
		c4.1-2.2,7.3-6.1,11.3-9.5c-8.5-5.4-11.3-5.5-17.6-2.6c-11.3,5.3-20.2,15-33.2,17.3c-2.3,0.4-4.2,3.1-6.3,4.8
		c-11.1,9-23.2,15.9-36.9,20.5c-9.2,3.1-19.4,4.7-26.2,13.2c-1.4,1.7-5.2,1.6-7.9,2c-9.2,1.1-18.9,1.4-25.7,8.7
		c-4.7,5.1-9.5,6.8-16.4,6.7c-8.8-0.2-17.3,2.5-23.5,9.9c24.5-1.6,46.1-15.2,71-17.6c-0.5,1.8-0.6,2.7-0.9,2.9
		c-6.4,2.5-11.4,6.5-14.8,12.7c-0.9,1.7-3.6,3.3-5.6,3.5c-8.9,1-12.9,7.9-18.1,14.3c4,0.6,8.1,1.2,11.3-0.3
		c5.9-2.9,11.1-7,16.7-10.6c8.1-5.3,12.8-15.1,23.3-17.1C2521.7,135.1,2522.1,133.7,2523.1,132.1z M3215.7,221.7
		c-1.2-2.4-2.4-4.8-3.6-7.1c-4.1-8.4-12.6-11.9-20.6-7.3c-4.3,2.5-8.8,6.5-10.8,11c-3.6,7.8-8.8,14.1-14.9,19.8
		c-9.5,8.8-19.2,17.5-29.5,25.4c-6.2,4.7-8.1,10-6.9,17c11.2,5.6,15.4,4.5,22.4-4.3c11.1-14,24.1-25.4,42.4-28.8
		c6.4-1.2,10.9-5.1,14.1-10.2C3211.4,232.2,3213.3,226.9,3215.7,221.7z M2434.9,149.5c-3.5-1.4-4.6-2.4-5.7-2.2
		c-9.9,1-19.9,1.7-29.7,3.3c-14.1,2.3-28.1,5.4-42.1,8.2c-5.5,1.1-11.1,2.1-16.4,3.8c-1.6,0.5-2.5,3.3-3.7,5c1.6,1,3,2.6,4.7,2.8
		c3.3,0.3,6.7,0.4,9.9-0.3c25.6-5.6,51.3-11.4,76.9-17.2C2430.2,152.5,2431.5,151.4,2434.9,149.5z M2296.9,292.2
		c4.9,2.8,7.1-0.1,9.8-2c8.3-6,16.7-12,25.2-17.7c5.8-3.9,11.9-7.2,17.7-11.1c6.1-4,11.3-10.1,17.9-12.1c7.3-2.3,10.3-7.7,14.3-12.6
		c0.9-1.1,1-4.2,0.2-5.3c-0.8-1-3.9-1.4-5.1-0.6c-3.3,2-6.2,4.9-9.3,7.3c-3.8,2.9-7.7,5.7-11.6,8.4c-4.6,3.1-9.5,5.9-14,9.2
		c-11.4,8.4-21.5,18.8-34.6,24.9C2302.5,282.8,2298.9,286.4,2296.9,292.2z M3098.3,282.5c10.3,0.1,12.5-7.3,14.3-18.2
		c1-6.2-5.3-13.1-10.8-13.1c-12.1-0.1-19.4,6.6-19.5,17.8C3082.3,277.8,3087.8,282.5,3098.3,282.5z M2403.2,215
		c6.8,2.6,11.5,1.8,14.6-3.1c2.5-4,6-5.9,10.2-7.4c3.1-1.2,6.2-2.6,8.8-4.6c10.2-7.9,20.2-16.1,30.2-24.3c1.3-1,2.9-2,3.6-3.3
		c0.7-1.3,1-4.1,0.4-4.4c-1.5-0.9-3.8-1.4-5.3-0.8c-2,0.9-3.3,3.2-5.1,4.5c-3.2,2.3-6.3,5.1-9.9,6.3c-8,2.7-14.3,7.1-18.3,14.4
		c-2,3.6-4.7,5-8.2,6.4C2415.9,201.9,2409.5,207.5,2403.2,215z M2289.1,298.4c-23.9,6.2-60.9,31.4-64.8,42.1
		c0.6,0.2,1.3,0.6,1.8,0.5c1.3-0.3,2.5-0.9,3.7-1.2c13.7-4,22.2-16.1,34.6-22.1c7.8-3.8,12.2-12.7,21.3-15
		C2287.2,302.2,2288,299.8,2289.1,298.4z M758.4,203.7c4.2,4.1,8,3.8,11.9,2.9c16.1-3.8,32.3-7.5,48.4-11.3c1.4-0.3,2.7-1.4,4.2-2.3
		c-5.6-4.4-5.7-4.7-10.6-2.8c-6,2.3-11.9,2.7-18.3,2.8c-9.1,0.2-18.3,2.7-27.3,4.9C763.8,198.6,761.5,201.4,758.4,203.7z
		 M820.8,423.5c0.7,3.8,3.2,5.8,6.7,5.7c15.2-0.5,30.3-1.1,45.5-2c1.3-0.1,2.5-2.3,3.9-3.6C868.5,418,841.3,418.1,820.8,423.5z
		 M924.7,424.7c-7.8-4.9-26.4-6.9-37-4.6c-2.1,0.5-3.9,2.1-5.8,3.2c0.3,0.7,0.5,1.5,0.8,2.2C896,427.2,909.5,428.9,924.7,424.7z
		 M829,187.1c0.1,1,0.2,2,0.4,3c1.8,0.5,3.7,1.6,5.5,1.4c9.5-1.2,19-2.5,28.5-4.2c3-0.5,5.4-2.6,3.8-7.1c-5.8-1.2-11.8-1-17.1,1.9
		c-4.2,2.3-8.3,3.6-13.2,3.2C834.3,185.1,831.6,186.5,829,187.1z M772.4,423.9c-15.5-4-34.5-2.1-40.8,3.5
		C738.5,430,756.5,428.6,772.4,423.9z M343.5,428.5c13.7,7,27.4,6.3,41.1,2c0-0.7,0-1.3,0-2C370.9,428.5,357.2,428.5,343.5,428.5z
		 M808,424.3c-6.3-4.1-12.1-4.9-18.3-2.6c-1.2,0.5-2.3,2.3-2.6,3.8c-0.2,0.8,1.1,2.8,2,2.9C795.5,429.6,801.9,429.8,808,424.3z
		 M509,429.8c5.7,6.3,8.9,1.7,12.7,0.7c3.8-1.1,8-0.9,12-1.2c-0.1-0.9-0.2-1.7-0.3-2.6C525.2,423.8,517.6,425.4,509,429.8z
		 M699.4,428.4c9.9,3.1,16-0.3,23.9-5.3C714,421.9,707,420.9,699.4,428.4z M240.9,431c-16.5-3.2-20.1-3-26.1,1.4
		C223.3,435.1,231.4,437.8,240.9,431z M899.2,175.1c-4.1,0-7,0-9.8,0c-1,0-2.2-0.1-2.9,0.3c-1.3,0.8-3,1.9-3.2,3.1
		c-0.2,1.1,1.1,3.1,2.3,3.7C890.6,184.8,895.3,182.6,899.2,175.1z M445.1,429.9c-5.3-4.5-10-3.7-14.4-3c-1.5,0.3-2.5,2.9-3.8,4.5
		c1.8,1,3.8,2.9,5.5,2.7C436.2,433.5,439.8,431.8,445.1,429.9z M594.3,424.5c7.4,4.9,19.3,4.7,28.3,0
		C613.3,424.5,604.4,424.5,594.3,424.5z M2400.4,223.6c-2.6-1.5-4.1-3-5.6-3c-3.7,0.1-8.7,6-8.1,9.6c0.2,1.1,2.8,2.9,3,2.8
		C2393.1,230.3,2396.3,227.3,2400.4,223.6z M179.5,432.1c-3.7-0.6-7.2-1.4-10.8-1.8c-4.1-0.5-6.9,0.8-7,5.9
		C168.6,437.2,174.5,437.2,179.5,432.1z M332.2,431c-9.9-4.3-14.3-4-19.8,1.2C319.2,436.4,325.1,432.8,332.2,431z M124.4,436.1
		c6.5-0.4,13-0.8,20.5-1.3C138.4,429.8,132.9,430.1,124.4,436.1z M721.5,213.4c3.5,3.3,7.3,3.1,10.9,0.1c0.6-0.5,0.8-2.9,0.3-3.4
		c-3.7-3.1-7.1-1.4-10.4,1C721.8,211.5,721.8,212.3,721.5,213.4z M693.6,428.3c-1.3-7.1-3.6-7.6-15.7-3.7
		C683.4,425.9,688,427,693.6,428.3z M71.1,430.9c-0.1,0.9-0.1,1.8-0.2,2.7c3.3,1.1,6.6,2.5,10,3c1.1,0.2,2.9-1.8,3.8-3.2
		c0.3-0.4-1.6-3.1-2.6-3.1C78.5,430.1,74.8,430.6,71.1,430.9z M473.5,432.3c4.2-0.8,8.3-1.6,12.5-2.4
		C480.6,425.4,476.5,426.4,473.5,432.3z M261,431c-10.9-2.7-10.9-2.7-10.2,4C254.1,433.8,257.2,432.5,261,431z M3610.8,374.7
		c-7.1-3.4-7.1-3.4-12.4,2.3C3603.4,376.1,3606.5,375.5,3610.8,374.7z M749.6,207.2c1.6,0.7,2.6,1.4,3.6,1.4c0.5,0,1.1-1.2,1.7-1.8
		c-0.9-0.6-1.7-1.5-2.7-1.7C751.7,204.9,750.9,206.1,749.6,207.2z M295.9,429.1c-0.4,0.4-0.8,0.9-1.2,1.3c0.5,0.3,1.2,1,1.4,0.9
		c0.6-0.4,1-1.1,1.5-1.7C297.1,429.5,296.5,429.3,295.9,429.1z M567,424.6c-0.8,0.9-1.5,1.4-1.8,2.1c-0.1,0.3,0.6,1.3,1,1.3
		c0.8,0,1.5-0.5,2.2-0.8C567.9,426.5,567.6,425.8,567,424.6z M879.2,182.4c-0.4-0.9-0.6-1.8-0.9-1.8c-0.6,0-1.3,0.3-1.7,0.7
		c-0.3,0.4,0,1.1,0,1.7C877.5,182.8,878.3,182.6,879.2,182.4z"/>
	<path d="M1571.4,670c1.6-6.1,6.1-8.5,10-11.5c12.1-9.2,24.2-18.5,36.5-27.5c9.9-7.2,20.2-14.1,30.4-20.9
		c12.1-8.1,24.3-16.1,36.4-24.1c7.7-5.1,15.4-10.4,23.3-15.2c6.8-4.2,13.8-7.8,20.7-11.7c4.3-2.5,8.5-5.2,12.9-7.7
		c8.1-4.6,16.2-9,24.3-13.6c10.7-6,21.4-11.9,32.1-17.9c0.9-0.5,1.6-1.2,2.5-1.6c14.2-7.3,28.2-14.8,42.5-21.9
		c21.4-10.5,42.9-20.9,64.5-31c12-5.6,24.5-10.2,36.7-15.4c23.8-10.1,47.6-20.6,71.5-30.4c11.6-4.7,23.7-8.2,35.5-12.5
		c13.7-5,27.2-10.6,41-15.6c13.1-4.7,26.7-8.4,39.6-13.6c19.4-7.8,40.1-12.2,58.4-22.8c2.6-1.5,5.3-3,8.2-3.6
		c4.4-1,7.7-2.8,10.4-6.6c2.2-3.1,5.3-6.3,10.7-3.2c-0.3,2.6-0.7,5.4-1,8.2c0.6,0.2,1.4,0.8,1.8,0.6c20-8.6,41-13.6,62.1-18.5
		c8.7-2,17.4-4.3,26.1-6.6c16-4.3,32-8.9,48-13.1c14.8-3.9,29.8-7,44.5-11.1c24-6.6,48.5-11.9,70.9-23.4c7.3-3.7,16,0.1,18.7,7.3
		c2.1,5.7,0.4,10.6-5.4,13c-5.6,2.3-10.5,6.8-17.5,4.7c-2.2-0.7-5.3,0.7-7.7,1.7c-13.8,5.8-27.9,10.8-39.8,20.4
		c-6.7,5.4-14.1,9.9-21.2,14.8c-1.4,0.9-2.9,2-3.7,3.3c-1,1.6-2.3,4.2-1.6,5.3c1,1.6,3.7,3.4,5.4,3.2c7.9-1,16-1.8,23.4-4.5
		c12.8-4.7,25.9-9.3,37.1-16.7c6.9-4.5,14.3-7.5,21.2-11.6c7.6-4.5,15.1-9.5,16.8-19.8c0.9-5.4,9.9-10.7,15.5-10.6
		c4.8,0.1,11.3,5.2,12.6,11.2c0.7,3.3,0.6,7.8-1.1,10.3c-3.8,5.7-8.9,10.6-13.5,15.7c-8.9,9.9-17.9,19.7-26.7,29.6
		c-1.5,1.7-2.5,4.2-4.3,5.4c-2.8,1.9-6.8,4.8-9.1,4c-2.6-0.9-4.3-5.3-5.8-8.5c-0.7-1.6-0.1-3.8-0.1-7.4c-4.9,1.8-8.8,3.2-12.5,4.8
		c-4.9,2-9.5,4.7-14.5,6.3c-10.4,3.4-20.9,6.6-31.5,9.4c-6.7,1.8-13.5,3.4-20.4,4c-8,0.6-14.2-3.8-18.2-10.2
		c-3.6-5.8-3-12.1,1.5-17.7c6.2-7.5,12.9-14.3,21.8-18.8c4.9-2.5,9.7-5.3,13.8-11.4c-3.9,0-6.5-0.5-8.9,0.1
		c-13.6,3.2-27.1,6.5-40.6,10.1c-24.4,6.5-48.8,13.3-73.2,19.9c-2.8,0.8-5.8,1.3-8.6,1.9c-2.3,0.5-5,0.2-6.8,1.3
		c-12.2,7.4-26.8,6.4-39.8,11.1c-19.7,7.1-39.9,12.9-59.5,20.2c-7.9,3-15,8.3-22.3,12.9c-20.9,13-41.5,26.5-62.5,39.2
		c-15.3,9.2-31.3,17.4-46.8,26.3c-3.1,1.8-5.4,5-8.4,6.9c-15.6,10.2-31.2,20.3-47,30.2c-20,12.5-40.1,24.8-60.3,37.1
		c-12.2,7.4-24.6,14.5-36.6,22.2c-15.9,10.2-31.4,21.1-47.4,31.2c-10.8,6.8-19.5,17.1-33,19.5c-2.3,0.4-4.2,3.1-6.3,4.7
		c-10.2,7.3-20.3,14.9-30.7,21.8c-8,5.3-16.6,9.6-24.8,14.7c-18.1,11.2-36,22.7-54,34c-18.3,11.4-36.5,22.8-55,33.9
		c-3.6,2.2-7.7,5.3-13.2,1.9c4.8-7.6,12.4-10.7,18.9-14.8c12.3-7.8,24.7-15.5,37.6-22.3c11.6-6,21.8-13.9,32.3-21.5
		c12-8.7,25.5-15.5,38.2-23.3c10.2-6.2,20.4-12.5,30.3-19.2c15.7-10.5,30.6-22.6,47-31.8c14.2-8,27.1-17.8,41-26
		c9.5-5.6,18-12.3,26.9-18.5c1.6-1.1,3.6-1.5,5.5-2.1c1.6-0.5,4-0.2,4.7-1.2c5.1-7.2,13.7-9,20.3-13.8c3.5-2.5,6.9-5.8,10.9-6.8
		c8.1-2,13.6-7.6,19.9-12.1c6.5-4.6,12.7-9.6,19.4-13.9c6.8-4.4,14-8.3,21-12.4c4-2.3,7.9-4.7,11.8-7.1c3.4-2.1,6.5-4.9,10.1-6.3
		c19.7-7.8,34.7-23.3,53.2-32.6c10.6-5.3,18.8-14.9,31-17c0.6-0.1,1.3-0.4,1.8-0.8c8.1-6.2,16.2-12.5,23.9-20
		c-7,2.3-14.1,4.3-21,6.9c-22.4,8.4-44.7,17-67,25.7c-25.4,9.9-50.8,19.8-76,30.3c-24.6,10.2-49.1,20.5-73.2,31.8
		c-42.8,20-85.2,40.7-126.1,64.4c-17,9.9-33.4,20.6-50.1,30.9c-13.3,8.2-26.7,16.3-39.9,24.5c-1.6,1-2.8,2.7-4.2,4
		c-1.7,1.6-3.2,4.3-5,4.5c-8.9,1.4-14.1,8.3-20.8,12.9c-4.1,2.8-8.3,5.5-12.7,7.9c-11.3,6.1-20.2,15.3-30.5,22.7
		c-4.9,3.5-9.7,6.9-14.5,10.4C1580.1,672,1576.4,673.7,1571.4,670z"/>
	<path d="M3011,359c15.2-11.4,19.6-23.9,12.5-35.1c-10.1-1-17.3,7.1-26.7,8.8c-2,0.4-3.8,3.4-5.1,5.6c-6.5,10.8-12.7,21.8-19.1,32.6
		c-1,1.7-2.2,3.2-3.2,4.6c-6.2-1.6-11.9-3.1-17.6-4.6c-6.5-1.7-9.1-6.6-6.7-12.8c0.7-1.9,1.6-3.7,2.8-5.3c5.4-7.2,7.2-15.4,7.8-24.3
		c0.7-10.4,6.3-14.8,16.9-12.7c5.4,1.1,9.5,0.2,14.1-2.6c10.2-6.2,21.1-10.9,32.6-14.8c9.5-3.2,17.5-0.6,24.3,4.2
		c7.1,5,13.1,11.8,13.4,22c0.3,6.9,4.7,8.7,11.2,5.3c8.9-4.6,18.1-8.7,26.3-14.2c6.4-4.3,12.5-5.9,20.1-5.8
		c5.2,0.1,9.1,0.4,13.4,4.2c13.5,11.9,14.6,20.8,3.2,35.9c-6.2,0.3-9.3-3.9-11.8-8.8c-6.3-12-8.5-12.7-20.7-6.1
		c-1.7,1-3.9,1.4-5.3,2.7c-2.6,2.5-4.9,5.4-8.2,9.2c-6-0.9-12.4,1.3-18.2,6.7c-8.5,7.9-7.1,17,4.2,20c8.3,2.2,17,3.1,25.6,3.3
		c17.9,0.5,35.9,0.5,53.9-0.1c18.9-0.6,37.8-2.1,56.6-3.5c7.9-0.6,15.7-2.2,23.6-2.7c6.6-0.4,13.2,0.2,19.8,0.1
		c14.9-0.2,29.7,2.2,44.7-1.2c7-1.6,14.6-0.2,21.9-0.4c17.2-0.5,34.5-1.5,51.7-1.4c8.6,0,17.2,2.6,25.2-2.8c0.7-0.5,2.1-0.7,2.9-0.3
		c12.3,5.8,25.9-1,38.3,4.2c0.3,0.1,0.7,0.2,1,0.1c8.4-4.4,16.9,0.3,25.3-0.1c8.6-0.4,17.3-1.5,25.9-1.5c8.9-0.1,17.9,0.8,26.8,1.2
		c1.7,0.1,3.3,0.6,5,0.6c7.5,0,14.7-0.5,22.4,1.8c5.5,1.6,12.5-0.7,18.5-2.4c4.8-1.3,9-1,13.6,0c5.3,1.2,10.8,1.5,18.3,2.5
		c-3,2.6-4.2,4.6-5.6,4.8c-5.9,0.7-11.9,1.3-17.8,1.3c-18.6,0.1-37.2,0-55.8-0.2c-16.9-0.2-33.8-0.9-50.7-0.7
		c-14.9,0.1-29.8,1.2-44.7,1.6c-8.9,0.3-17.9,0-26.9,0.6c-7.9,0.5-15.7,1.7-23.6,2.6c-1.9,0.2-4,1.4-5.6,0.9
		c-14.7-3.8-29.6-0.3-44.4-1c-9.2-0.4-18.5-0.1-27.7,0.5c-15.2,1.1-30.4,2.7-45.6,4c-3.6,0.3-7.2,0.4-10.8,0.4
		c-5.1-0.1-10.1,0-12.6,6.7c-6.5-5.9-13.1-6.7-20.3-2.7c-1.6,0.9-3.9,0.9-5.8,0.9c-7.6-0.2-15.2-2.6-22.7,0.7
		c-0.5,0.2-1.4,0.1-1.9-0.2c-7.9-4.7-16.2-2.4-24.4-1.6c-13.4,1.4-26.9,2.5-40.4,3.8c-0.7,0.1-1.4,0.1-2-0.1
		c-16.8-6.1-34.8-5.3-52-8.6c-3-0.6-5.9-2.9-8.3-5c-6.6-5.7-12.8-11.4-22.2-12.3C3015.3,367.4,3011.9,364.2,3011,359z"/>
	<path d="M2638.9,327.7c0.8-0.9,2.6-2.8,4-4.4c0.4-9.6-27.1-18.6-42.1-14.2c-0.4,0.7-1.2,1.7-1.1,2.5c0.9,12.1-5.4,19-15.7,23.8
		c-6.9,3.2-13.4,7.4-20.2,10.9c-13.6,6.9-13.6,6.9-30.9,6.6c-0.7-1.6-1.1-3.7-2.2-5.1c-7-8.6-4.8-18.7-2.7-27.7
		c2-9.2,9.6-15.3,18.7-17.7c15.1-4,30.5-6.8,45.7-10.3c14.2-3.3,28.4-3.1,42.5,0c5.5,1.2,10.9,3,16,5.3c7.9,3.7,15.2,5.4,23.9,1.8
		c6.3-2.6,13.6-2.8,20.5-4.2c5.6-1.1,10.5,0.8,15.2,3.6c6.5,3.9,7.8,7,6.4,14.1c-1.3,6.4-4.7,11.1-11.3,12.2
		c-6.4,1-12.6,2.2-19.5,0.1c-11.9-3.6-19.2,1.1-26,14.5c4.5,5.2,11,6.5,17,5.8c12.5-1.4,25.1-3.3,37.3-6.3
		c7.4-1.8,11.7-8.3,15.6-14.7c2.7-4.4,5.9-8.9,9.9-12.2c4.5-3.7,10.2-4.8,15.9-1.7c5,2.7,8.3,5.7,7.5,12.5
		c-1.1,9.5,3,13.2,12.3,11.8c8.5-1.3,17-2.9,25.3-5.3c3.2-0.9,5.7-4.3,8.4-6.7c4.8-4.2,9.4-8.1,16.8-6.8c10.4,1.8,16,10.6,12.5,20.7
		c-1.5,4.4-3.2,8.7-4.9,13c-3.4,8.8-12.3,12.8-20.2,7.5c-8.6-5.8-17.2-5.2-26.7-4.4c-15.8,1.3-31.7,3-47.7-0.1
		c-4.3-0.9-9.4,0-13.6,1.4c-15.9,5.6-32.3,7.8-48.9,8.6c-11,0.5-21.8-1.7-31.3-8.3c-4.5-3.1-6.8-7-6.4-12.6
		C2639.1,337.4,2638.9,333.1,2638.9,327.7z M2576.1,311.7c-5.1,1-8.4,1-11.1,2.2c-5,2.4-9.7,5.6-14.6,8.4c-2.5,1.4-4.8,3.1-3.2,6.2
		c1.6,3.3,4.5,2.3,6.9,0.9c6.2-3.8,12.4-7.7,18.5-11.8C2573.7,316.9,2574.1,315.1,2576.1,311.7z"/>
	<path d="M1418.5,398.9c-0.3-3.4-0.2-5.1-0.7-6.6c-3.7-11.7,2.3-18.7,11.3-24.6c5.8-3.8,11.4-8.1,16.9-12.4c5.5-4.4,11.9-5.9,18.7-6
		c6.9-0.2,9.3,2.8,9,9.8c-0.5,10.9-2,12.6-12.8,13.5c-9.7,0.8-19.4,1.3-25.9,11c4.9,5.5,11.9,5.5,18,5c12.6-1,25.2-2.5,37.4-5.4
		c17.3-4.1,33.2-11.8,46.2-24.5c6-5.8,5.3-11.1-1.9-15.2c-7.9-4.5-16.1-2.4-24.3-0.6c-8.6,1.9-17.2,3.9-25.8,5.7
		c-1.1,0.2-2.4-0.2-4.4-0.4c1.7-6.2,6.2-8.2,10.9-9.7c11.1-3.4,22.2-7.2,33.5-9.7c7-1.6,14.7-2.5,21.7-1.2c4.3,0.8,8.1,6.1,11.5,10
		c1.6,1.8,1.9,5,2,7.6c0.1,5.4,1.9,9,7.8,9.7c1,0.1,2,0.4,2.9,0.8c4.1,1.9,5.7,5.5,5.8,9.7c0.1,4.1-3,5.8-6.3,6.8
		c-2.8,0.9-5.9,1.1-8.8,1.7c-2.4,0.5-4.7,1.3-9.4,2.7c3.7,1.6,5,2.6,6.3,2.7c17.1,0.6,33.1-3.1,47.7-12.2c6.1-3.8,10.8-8.7,12.6-16
		c1.5-6.1,6.1-9.4,12-10.6c4.9-1,11,2.2,13.5,6.7c3.1,5.6,2.1,11.2-1.6,15.9c-3.4,4.5-7.5,8.3-11.9,13.1c2.1,0.5,4,1.3,6,1.3
		c14.9-0.5,29.4-2,37.8-17.2c2.7-4.9,6.6-9,10-13.5c3.9-5.1,10.1-6.1,16.2-2.9c5.8,3.1,8.5,9.2,6.5,15c-1.9,5.6-5.3,9.9-10.6,12.7
		c-5.6,3-9.4,6.3-8.1,14c1.2,6.8-5.1,10.7-11.3,6.7c-8.7-5.6-16.6-4-25.6-1.8c-9.3,2.3-19.1,2.7-28.7,3.1c-3.8,0.2-8.1-1-11.4-2.9
		c-5.7-3.4-11.2-3.2-17.3-1.8c-14,3.1-27.9,6.3-42,8.6c-8,1.3-16.1,0.2-21.5-7.4c-3.3-4.8-6.8-5.4-12.7-3.4
		c-24.7,8.4-50.1,13.6-76.1,15.7C1434.2,403.1,1426.6,400.3,1418.5,398.9z"/>
	<path d="M1098.6,423c6.8-7.8,15.7-5.5,23.7-6c7.6-0.5,15.3,0.7,23,0.6c8.6-0.1,17.2-0.8,25.9-1.3c10.6-0.6,21.2-1.3,31.8-1.7
		c7-0.3,13.9-0.3,20.9-0.2c13.1,0.3,26.1-1.6,39.1-2c10.5-0.3,20.8-1.8,31.1-2.5c18.1-1.2,35.4-5.9,52.9-9.7
		c5.7-1.3,11.4-4,16.2-7.3c7-4.7,6.3-14.9-0.7-19.3c-5.6-3.5-11.4-6.8-17.3-9.7c-5.9-2.9-12.2-4.7-18.1-7.6
		c-11.6-5.7-22.8-12.1-35.4-15.8c-11.1-3.3-22-7.3-33-10.8c-1.9-0.6-4-1.4-5.8-1.2c-9.8,1.2-17.9-3.8-26.5-6.9
		c-8.7-3.1-17.8-5.6-26.9-7.4c-9.1-1.7-18.8-0.8-27.5-3.5c-6.9-2.2-13.6-4.8-20.7-5.6c-9-1-17.8-2.6-26.7-4.2
		c-10.8-1.9-21.3-4.3-31.9-7c-7.6-2-15.8-1.8-23.7-2.5c-1.3-0.1-2.7,0.6-4,0.4c-14.6-2.7-29.2-5.6-43.7-8.4c-0.4-0.1-0.7-1-1.3-2.1
		c4-3,8.7-2.8,13.1-2.2c14.8,1.8,29.9,2.7,44.4,6.1c23.6,5.4,47.8,7,71.5,12.2c26,5.6,52.3,9.6,77.7,17.9c5.3,1.7,11.1,1.9,16.6,3.2
		c13.8,3.5,27.8,6.5,41.3,11.1c23.2,8,46.3,16.7,69,26c8.5,3.5,15.9,9.6,23.6,14.8c2.1,1.4,3.7,3.8,5.1,6
		c6.6,10.3,4.9,19.9-5.9,25.2c-9.2,4.5-19.1,8-29.1,10c-18.8,3.8-37.9,6.3-56.9,9.2c-2.9,0.4-5.9,0-8.9-0.1c-3.3,0-6.7-0.5-9.8,0.2
		c-13.1,3-26.1,2.9-39.3,1.1c-1.3-0.2-2.7-0.5-3.9-0.2c-16,4-32.3,2.1-48.5,2.4c-5.3,0.1-10.6,0.3-15.9,0.5c-2,0.1-4.2,1.1-5.9,0.5
		c-11.6-4.6-22.6,0.4-33.9,1.4c-9.2,0.8-18.6-0.9-27.9-0.8c-11.4,0.1-22.9,0.9-34.3,1.2c-3.3,0.1-6.7,0.3-9.9-0.4
		c-10.8-2.3-21.5-3-32.3,0.4c-3.7,1.1-8.1,1.1-11.9,0.2c-12.5-2.8-24.9,0-37.4,0.1c-12.5,0.1-24.9-1-37.4-1.5
		c-0.2-0.9-0.3-1.7-0.5-2.6c2.5-1,5-2.6,7.6-3c14.2-1.8,28.6-3.3,42.7-0.2c9.3,2,17.6-2,26.6-1.7c21.9,0.7,43.8,0.7,65.7,0.9
		c2.6,0,5.3-0.3,7.9-0.7C1088.8,417.9,1094.3,417.7,1098.6,423z"/>
	<path d="M1566,669.1c4.4,4.8,4.7,8.4,0.1,11.8c-5.3,3.9-10.7,7.8-16,11.6c-1.1,0.8-2.3,1.3-3.3,2.3c-13.8,14.1-29.7,25.5-46.3,36.1
		c-1.7,1.1-3.3,2.3-4.5,3.8c-4.7,5.5-9.9,9.9-15.4,9.7c-4.7,4.4-7.9,7.5-11.2,10.6c-0.5,0.5-1.1,0.7-1.6,1.2
		c-22.3,18.9-44.6,37.7-66.7,56.8c-11.6,10-23,20.1-34.2,30.5c-6.1,5.6-11.8,11.7-17.4,17.9c-1.5,1.7-2.1,4.3-3.3,6.9
		c5.8,1.7,9.1-1.3,12.3-3.1c10.1-5.7,20-12,29.9-18.1c16.5-10,32.9-20.2,49.4-30.1c26.7-16.1,53.3-32.3,80.4-47.8
		c19.9-11.4,40.4-21.7,60.5-32.5c2.9-1.6,5.7-3.4,8.5-5.1c7-4.3,13.8-8.9,21-12.9c3-1.7,6.9-2.9,10.1,2c-2.1,1.7-3.8,3.7-5.9,4.9
		c-18.1,10.6-36.4,20.9-54.4,31.5c-7.2,4.2-13.9,9.1-21.1,13.3c-5.1,3-10.7,5.1-15.9,8c-17.8,10.4-35.6,20.8-53.2,31.5
		c-19.4,11.7-38.7,23.5-57.9,35.4c-27.4,17-54.7,34.2-82.1,51.3c-5,3.2-9.9,6.6-15.3,9.3c-2.7,1.3-6.5,2.1-9.3,1.4
		c-6.4-1.7-7.5-6-3.4-11.2c2.5-3.1,5.6-5.7,8.2-8.7c6-6.6,11.9-13.4,18-20c5.2-5.6,10.4-11.1,16-16.4c11.6-11,23.4-21.8,35.2-32.5
		c5.6-5.1,11.2-10.3,17.1-15.1c9.5-7.8,19.3-15.3,29-22.8c7.6-5.8,15.7-10.9,21.6-18.9c3.2-4.4,8.4-7.4,13-10.7
		c16.8-12.4,33.7-24.7,50.4-37.2c10.8-8.1,21.3-16.7,32.1-24.9C1548.6,682.2,1557,675.9,1566,669.1z"/>
	<path d="M2160.3,177.7c-0.3,16.2,5.6,29.8,18,40c5.7,4.7,6.8,9.7,4.7,15.8c-2.2,6.3-6.6,10.5-14,10.9c-11.7,0.7-18.1-1.5-21.3-14.3
		c-2.9-11.5-8.2-21.5-16-30.6c-3.5-4.1-5-10.9-5.4-16.6c-0.9-12.9-1.4-25.7-4.9-38.4c-2.6-9.5-2.3-19.7-3.1-29.7
		c-0.1-1.6-0.2-3.6,0.6-4.9c1.2-2.1,2.9-5,4.8-5.5c2-0.5,5,1.1,6.9,2.6c2.5,2.1,4.9,4.7,6.1,7.6c2.2,5.1,4.4,9.3,10.6,10.1
		c1,0.1,2.5,4.2,2,5.8c-2.5,7.7,1.5,13.2,6.1,17.9c5.2,5.3,9,12.6,17.2,14.3c6.3,9.9,16.9,7.8,25.9,8.5c21.8,1.5,43.7,2.3,65.6,2.6
		c9.9,0.1,19.8-1.5,29.7-2.5c6.6-0.6,13.1-1.4,19.7-2.3c2.2-0.3,4.4-1.1,6.6-1.8c5.3-1.6,5.3-1.6,11.6,3.8c-2,2.1-4,4.3-5.1,5.5
		c-32.4,1.9-63.7,3.8-94.7,5.7c-3.8,9-6.1,11-15.2,10.2c-18.9-1.7-37.7-4.4-54.3-14.7C2161.9,177.6,2161.1,177.8,2160.3,177.7z"/>
	<path d="M1795.6,386.9c2.1-6,3.5-10.2,4.9-14.2c-3.6-3.7-6.8-2.4-9.4-0.2c-10,8-22.4,9.8-34.1,13.1c-6.1,1.7-12.3,3.3-18.6,3.8
		c-6.5,0.6-13.5,1-19.7-0.7c-11.5-3-13.9-14.5-5-22.2c12.6-11,26.1-20.6,42.2-25.9c3.1-1,6.1-2.7,9.1-4.1c10.9-5,15.8-3.9,23.4,5.5
		c2,2.5,3.6,5.4,5.3,8.1c0.9,0,1.8,0.3,2.1,0c13.4-14.2,30-25.1,42.3-40.7c11.1-14.1,23.5-27.2,34.8-41.1c5-6.1,8.9-13.2,12.8-20.1
		c3.2-5.7,11.9-10.9,18.1-10c6.2,1,10.3,9.7,6.3,14.7c-6.2,7.8-12.6,15.3-19.3,22.7c-18.4,20.1-36.1,40.9-55.7,59.7
		c-13,12.4-20.8,27.2-27.8,42.9C1805.3,382.4,1802.9,386.1,1795.6,386.9z M1732.7,372.2c14.3,3.6,33.2-1.1,38.7-8.8
		c-4.2-3.4-7.5-9.2-14.3-6.5c-6.7,2.7-13.2,6-19.6,9.4C1735.8,367.2,1734.8,369.6,1732.7,372.2z"/>
	<path d="M1939.1,375.7c3.7,1.2,7.2,3.1,11,3.5c17.4,1.8,33.3,8.7,50.1,12.8c9.4,2.3,15.8,8,21.7,14.8c0.8,1,1.1,2.3,1.9,4
		c-4.7,3.2-9,1.1-13.2-0.1c-15.9-4.6-31.7-9.7-47.8-13.7c-7-1.8-14.5-1.5-21.8-2.3c-8.6-0.9-17.1-2.2-25-6.2
		c-3.3-1.6-7.3-1.7-7.5-6.5c-0.2-5,1.1-8.9,6-11.6c4.1-2.2,7.6-5.3,11.3-8.2c1.2-1,2-2.5,3.6-4.7c-15.8-5.1-30.5-2.2-46.3,0.1
		c1.2,3.6,2.2,6,2.8,8.5c1.5,6.6-2.3,11.1-9,11c-11.4-0.2-21.3-5.3-31.2-9.8c-4.1-1.9-5.6-6.5-4.9-11.2c0.9-5.8,5.7-11.2,10.7-11.7
		c16.2-1.7,32.4-3.2,48.5-4.7c13.2-1.2,26.5-2.3,39.8-3.4c1.3-0.1,2.7-0.4,4-0.3c5.6,0.3,10.7,2.6,13.5,7.3c3,5,1.5,10.6-1.9,15
		c-2.4,3.1-5.7,5.4-8.7,7.9c-2.7,2.2-5.4,4.3-8.2,6.4C1938.8,373.7,1938.9,374.7,1939.1,375.7z"/>
	<path d="M1090.7,212.2c4.8-10.6,9.1-17,1.2-26.7c-5.4-6.6-12.1-11.5-20.8-12.7c-14.5-2-29-4.9-43.5-5.4
		c-13.5-0.5-27.2,1.4-40.8,2.6c-20.1,1.8-40.2,3.9-60.2,6.1c-4.9,0.5-9.6,2.1-14.5,2.9c-1.3,0.2-2.8-0.8-6.3-1.9
		c8.1-3,13.1-7.5,20.1-7.3c2.3,0.1,4.7-0.4,6.9-1c14.2-4.4,29-6.1,43.4-4.7c8.4,0.8,15.4-1.6,23.1-2.2c11.7-1,23.6-0.2,35.4-0.3
		c8.3-0.1,16.5-0.6,24.8-0.6c3.8,0,8,0.4,11.5,1.8c7.9,3.2,15.5,6.8,24.4,7.7c8.7,0.9,15.6,7.2,18.5,15.1c2.8,7.8,0.2,16-5.7,22.2
		c-6.7,7-14.6,12.5-24.3,15.1"/>
	<path d="M2935.7,341.1c1.5,8.1-4.1,12.4-8.6,17.8c-4.6,5.4-9.2,9.1-16.4,9.8c-4.5,0.5-8.8,3-13.3,3.7c-3.8,0.6-7.8,0-11.6-0.5
		c-9.2-1-18.6-1.6-27.7-3.5c-15.4-3.1-19.8-15-11.8-28.5c7.6-12.8,20.2-17.2,33.1-20c6.6-1.4,12.8-2.7,18.8-5.7
		c3.5-1.8,7.3-3.6,11.1-4.2c12.2-2,25.5,10.9,26.4,25C2935.8,337.1,2935.7,339.1,2935.7,341.1z M2900.6,330.9
		c-3.7,6.8-10,9.5-17.4,10.8c-4.8,0.9-9,3.3-11,9.2c4.5,0.9,8.5,2.7,12.2,2.1c5.7-0.9,11.8-2.4,16.6-5.3
		C2907.6,343.6,2907.2,335.5,2900.6,330.9z"/>
	<path d="M1014.9,281.3c-1.1,1-1.7,2-1.9,1.9c-10.9-4.2-23.1,3-33.7-3.8c-0.5-0.3-1.3-0.4-1.9-0.5c-9.8-1.2-19.7-2.4-29.5-3.4
		c-13.8-1.5-27.6-2.9-41.4-4.2c-5.9-0.5-11.9-0.4-17.9-0.7c-6.6-0.4-13.3-0.9-19.9-1.3c-15.9-1.2-31.7-2.5-47.6-3.6
		c-8.9-0.6-17.8-0.9-26.7-1.4c-15.6-0.8-31.2-1.6-46.8-2.6c-14.3-0.9-28.5-2.1-42.8-3.1c-6.3-0.4-12.7-0.3-18.9-0.9
		c-15.9-1.5-31.7-3.3-47.6-4.9c-3.3-0.3-6.6-0.1-9.9-0.4c-2.6-0.3-5.4-0.5-7.6-1.8c-6-3.5-6.4-9.8-0.6-13.6c3.3-2.2,7.2-3.7,11-4.6
		c13.6-3.2,27.3-6,40.9-9.1c3.8-0.9,7.7-1.9,11.2-3.5c9.5-4.4,19.6-5.2,29.6-6.2c1.7,5.9-1.8,7.1-5,7.5c-21.5,3.1-42,9.9-62.6,16.3
		c-3.3,1-6.5,2.4-11.5,4.2c6.1,3.9,10.8,4.6,15.6,5.3c16.1,2.4,32.1,5.3,48.2,7.3c7.8,1,15.8,0.4,23.7,0.8
		c12.1,0.5,24.5-2.8,36.3,2.3c1.6,0.7,3.9-0.2,5.8-0.2c11.6,0.1,23.3,0.1,34.9,0.3c4.6,0.1,9.3,0.6,13.9,0.8c2.3,0.1,4.8-0.4,7,0.2
		c13.5,4,27.5,2.2,41.3,3.4c11.3,1,22.6,1,33.9,1.6c4.3,0.2,8.8,0.1,12.8,1.5c11.9,4,24.1,3.8,36.3,4.7c16.4,1.1,32.9,1.3,48.7,7.2
		c4.3,1.6,9.9-0.4,14.9-0.4C1010.9,276.3,1010.9,276.5,1014.9,281.3z"/>
	<path d="M2523.1,132.1c-1,1.6-1.4,3.1-2.1,3.2c-10.5,2-15.3,11.8-23.3,17.1c-5.5,3.6-10.8,7.7-16.7,10.6c-3.1,1.5-7.3,1-11.3,0.3
		c5.2-6.4,9.2-13.3,18.1-14.3c2-0.2,4.7-1.8,5.6-3.5c3.4-6.2,8.4-10.2,14.8-12.7c0.4-0.1,0.4-1.1,0.9-2.9
		c-24.8,2.4-46.5,15.9-71,17.6c6.2-7.5,14.7-10.1,23.5-9.9c7,0.1,11.7-1.5,16.4-6.7c6.7-7.3,16.4-7.6,25.7-8.7
		c2.7-0.3,6.6-0.3,7.9-2c6.8-8.5,17.1-10,26.2-13.2c13.7-4.6,25.8-11.5,36.9-20.5c2.1-1.7,4-4.4,6.3-4.8c12.9-2.3,21.9-12,33.2-17.3
		c6.3-3,9.1-2.8,17.6,2.6c-3.9,3.4-7.2,7.2-11.3,9.5c-16,8.7-32.4,16.8-48.5,25.4c-7.6,4-14.9,8.5-22.1,13.2
		c-4.8,3.2-11.4,3.2-14.8,9c-0.6,1-5,0.5-7.2-0.4c-4.6-1.9-8.3-1.4-12.3,2.7C2518.2,128.2,2520.4,130,2523.1,132.1z"/>
	<path d="M3215.7,221.7c-2.4,5.1-4.4,10.5-7.3,15.2c-3.2,5.1-7.6,9-14.1,10.2c-18.3,3.4-31.3,14.8-42.4,28.8
		c-7,8.9-11.3,9.9-22.4,4.3c-1.2-7,0.7-12.2,6.9-17c10.3-7.9,19.9-16.6,29.5-25.4c6.1-5.6,11.2-12,14.9-19.8
		c2.1-4.4,6.5-8.5,10.8-11c8-4.6,16.5-1,20.6,7.3C3213.3,217,3214.5,219.3,3215.7,221.7z"/>
	<path d="M2434.9,149.5c-3.5,1.9-4.7,3-6.1,3.3c-25.6,5.8-51.2,11.6-76.9,17.2c-3.2,0.7-6.7,0.7-9.9,0.3c-1.6-0.2-3.1-1.8-4.7-2.8
		c1.2-1.7,2.1-4.5,3.7-5c5.3-1.7,10.9-2.7,16.4-3.8c14-2.8,28-5.8,42.1-8.2c9.8-1.6,19.8-2.3,29.7-3.3
		C2430.3,147.2,2431.5,148.1,2434.9,149.5z"/>
	<path d="M2296.9,292.2c2-5.8,5.6-9.4,10.5-11.7c13.1-6.1,23.2-16.5,34.6-24.9c4.5-3.3,9.4-6.1,14-9.2c3.9-2.7,7.8-5.5,11.6-8.4
		c3.1-2.4,6-5.2,9.3-7.3c1.2-0.8,4.3-0.4,5.1,0.6c0.9,1.1,0.8,4.1-0.2,5.3c-4,4.9-7,10.4-14.3,12.6c-6.6,2-11.9,8.1-17.9,12.1
		c-5.8,3.9-11.9,7.2-17.7,11.1c-8.5,5.7-16.9,11.7-25.2,17.7C2304.1,292.1,2301.9,295,2296.9,292.2z"/>
	<path d="M3098.3,282.5c-10.6,0-16.1-4.6-16-13.5c0.1-11.2,7.4-17.9,19.5-17.8c5.5,0,11.8,6.9,10.8,13.1
		C3110.8,275.2,3108.7,282.6,3098.3,282.5z"/>
	<path d="M2403.2,215c6.3-7.4,12.7-13.1,20.8-16.3c3.6-1.4,6.3-2.9,8.2-6.4c4-7.3,10.4-11.7,18.3-14.4c3.6-1.2,6.7-4,9.9-6.3
		c1.9-1.3,3.2-3.6,5.1-4.5c1.4-0.6,3.8-0.1,5.3,0.8c0.6,0.4,0.3,3.1-0.4,4.4c-0.7,1.4-2.3,2.3-3.6,3.3c-10,8.1-20,16.3-30.2,24.3
		c-2.6,2-5.7,3.4-8.8,4.6c-4.1,1.6-7.7,3.4-10.2,7.4C2414.7,216.8,2409.9,217.5,2403.2,215z"/>
	<path d="M2289.1,298.4c-1.1,1.5-1.9,3.9-3.3,4.2c-9.1,2.3-13.5,11.2-21.3,15c-12.4,6-20.9,18.1-34.6,22.1c-1.3,0.4-2.5,1-3.7,1.2
		c-0.5,0.1-1.2-0.3-1.8-0.5C2228.2,329.8,2265.2,304.6,2289.1,298.4z"/>
	<path d="M758.4,203.7c3.2-2.3,5.5-5.1,8.3-5.8c9-2.2,18.2-4.7,27.3-4.9c6.4-0.1,12.4-0.5,18.3-2.8c4.9-1.9,5-1.7,10.6,2.8
		c-1.6,0.9-2.8,1.9-4.2,2.3c-16.1,3.8-32.3,7.5-48.4,11.3C766.3,207.5,762.6,207.8,758.4,203.7z"/>
	<path d="M820.8,423.5c20.5-5.4,47.7-5.4,56.1,0.1c-1.4,1.3-2.6,3.6-3.9,3.6c-15.1,0.9-30.3,1.5-45.5,2
		C823.9,429.3,821.4,427.3,820.8,423.5z"/>
	<path d="M924.7,424.7c-15.2,4.2-28.6,2.5-42.1,0.9c-0.3-0.7-0.5-1.5-0.8-2.2c1.9-1.1,3.8-2.7,5.8-3.2
		C898.3,417.8,916.9,419.8,924.7,424.7z"/>
	<path d="M829,187.1c2.6-0.6,5.2-2,7.8-1.7c4.9,0.5,9-0.9,13.2-3.2c5.4-2.9,11.3-3.1,17.1-1.9c1.6,4.4-0.8,6.5-3.8,7.1
		c-9.4,1.7-18.9,3-28.5,4.2c-1.7,0.2-3.6-0.9-5.5-1.4C829.3,189.1,829.1,188.1,829,187.1z"/>
	<path d="M772.4,423.9c-15.9,4.7-33.9,6.1-40.8,3.5C737.9,421.8,756.9,419.9,772.4,423.9z"/>
	<path d="M343.5,428.5c13.7,0,27.4,0,41.1,0c0,0.7,0,1.3,0,2C370.9,434.8,357.2,435.5,343.5,428.5z"/>
	<path d="M808,424.3c-6.1,5.5-12.4,5.2-18.9,4.1c-0.9-0.2-2.2-2.1-2-2.9c0.3-1.4,1.4-3.3,2.6-3.8C795.8,419.4,801.7,420.2,808,424.3
		z"/>
	<path d="M509,429.8c8.6-4.4,16.2-6,24.4-3.1c0.1,0.9,0.2,1.7,0.3,2.6c-4,0.3-8.2,0.1-12,1.2C517.8,431.6,514.7,436.1,509,429.8z"/>
	<path d="M699.4,428.4c7.7-7.5,14.7-6.6,23.9-5.3C715.4,428.1,709.3,431.6,699.4,428.4z"/>
	<path d="M240.9,431c-9.5,6.8-17.6,4.1-26.1,1.4C220.8,428.1,224.4,427.8,240.9,431z"/>
	<path d="M899.2,175.1c-3.8,7.5-8.5,9.7-13.6,7.1c-1.2-0.6-2.5-2.5-2.3-3.7c0.2-1.2,1.9-2.3,3.2-3.1c0.7-0.5,1.9-0.3,2.9-0.3
		C892.2,175,895.1,175.1,899.2,175.1z"/>
	<path d="M445.1,429.9c-5.3,1.9-8.9,3.6-12.7,4.2c-1.6,0.3-3.6-1.7-5.5-2.7c1.2-1.6,2.3-4.2,3.8-4.5
		C435.1,426.2,439.8,425.4,445.1,429.9z"/>
	<path d="M594.3,424.5c10.1,0,19,0,28.3,0C613.6,429.2,601.7,429.4,594.3,424.5z"/>
	<path d="M2400.4,223.6c-4.1,3.7-7.3,6.7-10.6,9.4c-0.2,0.1-2.8-1.7-3-2.8c-0.6-3.6,4.3-9.6,8.1-9.6
		C2396.3,220.6,2397.8,222.1,2400.4,223.6z"/>
	<path d="M179.5,432.1c-5,5.1-11,5.1-17.8,4.1c0-5,2.9-6.3,7-5.9C172.3,430.7,175.8,431.4,179.5,432.1z"/>
	<path d="M332.2,431c-7,1.9-13,5.4-19.8,1.2C317.9,427,322.3,426.7,332.2,431z"/>
	<path d="M124.4,436.1c8.5-6,14-6.2,20.5-1.3C137.4,435.3,130.9,435.7,124.4,436.1z"/>
	<path d="M721.5,213.4c0.4-1.1,0.4-1.9,0.8-2.2c3.2-2.4,6.7-4.2,10.4-1c0.5,0.5,0.4,2.9-0.3,3.4C728.7,216.5,725,216.6,721.5,213.4z
		"/>
	<path d="M693.6,428.3c-5.6-1.3-10.2-2.4-15.7-3.7C690,420.7,692.3,421.2,693.6,428.3z"/>
	<path d="M71.1,430.9c3.7-0.3,7.3-0.8,11-0.6c1,0,2.8,2.7,2.6,3.1c-0.8,1.4-2.6,3.3-3.8,3.2c-3.4-0.5-6.7-1.9-10-3
		C71,432.7,71.1,431.8,71.1,430.9z"/>
	<path d="M473.5,432.3c3-5.9,7.1-6.9,12.5-2.4C481.8,430.7,477.7,431.5,473.5,432.3z"/>
	<path d="M261,431c-3.7,1.5-6.9,2.7-10.2,4C250,428.3,250,428.3,261,431z"/>
	<path d="M3610.8,374.7c-4.4,0.8-7.4,1.4-12.4,2.3C3603.7,371.3,3603.7,371.3,3610.8,374.7z"/>
	<path d="M652.5,426.5c2.5-4.4,5.7-4.8,10.5-2c-3.4,4.7-7.2,2.5-10.7,1.7L652.5,426.5z"/>
	<path d="M652.3,426.2c-5.2,3.5-5.2,3.5-9,0.1c3.2-2.9,6.2-0.2,9.2,0.1C652.5,426.5,652.3,426.2,652.3,426.2z"/>
	<path d="M749.6,207.2c1.3-1.1,2.1-2.3,2.6-2.2c1,0.2,1.8,1.1,2.7,1.7c-0.6,0.6-1.1,1.8-1.7,1.8
		C752.2,208.6,751.2,207.9,749.6,207.2z"/>
	<path d="M295.9,429.1c0.6,0.2,1.2,0.4,1.7,0.5c-0.5,0.6-0.9,1.3-1.5,1.7c-0.2,0.1-0.9-0.6-1.4-0.9
		C295.2,430,295.5,429.5,295.9,429.1z"/>
	<path d="M567,424.6c0.6,1.2,1,1.9,1.4,2.6c-0.7,0.3-1.5,0.8-2.2,0.8c-0.3,0-1.1-1-1-1.3C565.4,426,566.1,425.5,567,424.6z"/>
	<path d="M879.2,182.4c-0.9,0.2-1.7,0.4-2.6,0.6c0-0.6-0.3-1.3,0-1.7c0.3-0.4,1.1-0.7,1.7-0.7C878.6,180.6,878.8,181.5,879.2,182.4z
		"/>
	<path class="st0" d="M2576.1,311.7c-1.9,3.4-2.4,5.2-3.5,5.9c-6.1,4.1-12.2,8-18.5,11.8c-2.4,1.4-5.2,2.4-6.9-0.9
		c-1.5-3.1,0.7-4.8,3.2-6.2c4.9-2.8,9.5-6,14.6-8.4C2567.7,312.7,2571,312.7,2576.1,311.7z"/>
	<path class="st0" d="M1732.7,372.2c2.1-2.6,3.1-5,4.9-5.9c6.4-3.4,12.9-6.6,19.6-9.4c6.8-2.8,10,3.1,14.3,6.5
		C1765.9,371.1,1747,375.8,1732.7,372.2z"/>
	<path class="st0" d="M2900.6,330.9c6.6,4.6,7,12.7,0.3,16.8c-4.8,3-10.9,4.5-16.6,5.3c-3.6,0.6-7.6-1.2-12.2-2.1
		c2-5.9,6.2-8.3,11-9.2C2890.5,340.4,2896.9,337.8,2900.6,330.9z"/>
</g>
</svg>
